<svg id="svg" version="1.1" xmlns="http://www.w3.org/2000/svg" xmlns:xlink="http://www.w3.org/1999/xlink" width="400" height="648.4944532488114" viewBox="0, 0, 400,648.4944532488114"><g id="svgg"><path id="path0" d="M26.267 26.267 C 25.619 26.914,25.970 446.923,26.618 446.385 C 26.958 446.103,30.800 440.996,35.156 435.036 C 39.513 429.076,48.807 416.370,55.811 406.800 C 62.815 397.230,72.890 383.460,78.200 376.200 C 94.013 354.578,94.579 353.808,94.813 353.600 C 94.937 353.490,95.468 352.770,95.994 352.000 C 96.519 351.230,98.400 348.626,100.174 346.214 C 101.948 343.802,104.791 339.932,106.491 337.614 C 108.191 335.296,109.727 333.220,109.903 333.000 C 110.079 332.780,110.848 331.700,111.612 330.600 C 112.375 329.500,113.093 328.510,113.207 328.400 C 113.485 328.132,117.576 322.563,132.016 302.800 C 138.686 293.670,146.059 283.590,148.400 280.400 C 150.740 277.210,156.142 269.830,160.404 264.000 C 164.666 258.170,171.052 249.440,174.596 244.600 C 195.194 216.463,193.210 219.523,191.600 218.371 C 191.050 217.978,184.660 213.744,177.400 208.963 C 170.140 204.181,160.266 197.678,155.457 194.511 C 150.649 191.344,146.831 188.628,146.974 188.476 C 147.117 188.324,171.659 175.956,201.511 160.991 L 255.788 133.783 265.733 120.191 C 271.202 112.716,278.242 103.090,281.377 98.800 C 297.105 77.275,317.363 49.622,320.792 45.000 C 322.913 42.140,325.079 39.170,325.605 38.400 C 326.131 37.630,326.665 36.910,326.791 36.800 C 326.917 36.690,328.768 34.215,330.903 31.300 L 334.785 26.000 180.659 26.000 C 95.890 26.000,26.413 26.120,26.267 26.267 M374.199 294.600 C 374.199 442.220,374.244 502.550,374.300 428.667 C 374.356 354.784,374.356 234.004,374.300 160.267 C 374.244 86.530,374.199 146.980,374.199 294.600 M301.693 178.400 C 301.693 179.170,301.775 179.485,301.876 179.100 C 301.976 178.715,301.976 178.085,301.876 177.700 C 301.775 177.315,301.693 177.630,301.693 178.400 M298.493 227.600 C 298.493 228.370,298.575 228.685,298.676 228.300 C 298.776 227.915,298.776 227.285,298.676 226.900 C 298.575 226.515,298.493 226.830,298.493 227.600 M176.341 449.301 C 176.507 449.467,201.113 449.557,231.021 449.501 L 285.400 449.400 230.720 449.200 C 200.646 449.090,176.176 449.136,176.341 449.301 M225.400 487.261 C 213.455 488.589,204.800 494.563,204.800 501.479 L 204.800 503.200 239.633 503.200 C 267.316 503.200,274.435 503.097,274.312 502.700 C 274.118 502.075,267.555 497.083,265.400 495.921 C 260.701 493.389,254.899 490.928,251.400 489.983 C 241.271 487.249,233.152 486.398,225.400 487.261 " stroke="none" fill="#eb141c" fill-rule="evenodd"></path><path id="path1" d="M11.600 294.800 L 11.600 578.000 200.400 578.000 L 389.200 578.000 389.200 294.800 L 389.200 11.600 200.400 11.600 L 11.600 11.600 11.600 294.800 M374.200 294.600 L 374.200 563.000 200.100 563.100 L 26.000 563.201 26.000 515.200 L 26.000 467.200 22.260 467.200 C 16.360 467.200,12.326 466.770,12.557 466.167 C 12.665 465.885,13.788 464.247,15.052 462.527 C 16.316 460.807,18.806 457.420,20.587 455.000 C 26.246 447.308,26.999 446.230,26.494 446.542 C 25.956 446.874,25.730 26.804,26.267 26.266 C 26.414 26.119,104.759 26.044,200.367 26.100 L 374.200 26.200 374.200 294.600 M281.000 121.051 C 267.580 127.762,256.330 133.407,256.000 133.595 C 255.670 133.783,231.100 146.115,201.400 160.999 C 171.700 175.883,147.245 188.212,147.055 188.396 C 146.745 188.696,152.088 192.305,182.393 212.270 C 187.127 215.389,191.540 218.323,192.200 218.790 C 193.255 219.536,203.275 226.136,217.600 235.519 C 220.130 237.177,226.340 241.266,231.400 244.606 C 236.460 247.947,245.460 253.885,251.400 257.803 C 263.893 266.043,281.039 277.369,288.736 282.466 C 291.672 284.410,294.203 286.000,294.362 286.000 C 294.641 286.000,295.256 278.590,296.004 266.200 C 296.650 255.517,297.164 247.525,297.588 241.600 C 297.817 238.410,298.271 231.660,298.598 226.600 C 298.925 221.540,299.379 214.790,299.608 211.600 C 299.837 208.410,300.195 202.920,300.404 199.400 C 300.745 193.659,301.024 189.361,302.393 168.800 C 302.957 160.329,303.896 145.949,304.587 135.200 C 304.920 130.030,305.378 123.190,305.605 120.000 C 306.208 111.543,306.251 109.100,305.800 108.966 C 305.580 108.901,294.420 114.339,281.000 121.051 M230.507 354.900 C 230.292 355.175,228.624 358.010,226.800 361.200 C 224.976 364.390,222.132 369.340,220.478 372.200 C 218.825 375.060,217.023 378.210,216.473 379.200 C 215.923 380.190,215.080 381.630,214.600 382.400 C 214.120 383.170,213.277 384.610,212.727 385.600 C 212.177 386.590,210.327 389.818,208.615 392.774 C 206.903 395.730,205.186 398.712,204.800 399.400 C 204.414 400.088,202.704 403.058,201.000 406.000 C 199.296 408.942,197.586 411.912,197.200 412.600 C 196.814 413.288,195.104 416.258,193.400 419.200 C 191.696 422.142,189.986 425.112,189.600 425.800 C 189.214 426.488,187.551 429.380,185.907 432.226 C 178.742 444.621,176.400 448.746,176.400 448.965 C 176.400 449.094,200.880 449.200,230.800 449.200 C 260.720 449.200,285.200 449.095,285.200 448.967 C 285.200 448.839,283.390 445.589,281.179 441.743 C 278.967 437.898,276.688 433.908,276.115 432.876 C 275.542 431.844,274.651 430.329,274.136 429.508 C 273.621 428.687,273.200 427.925,273.200 427.815 C 273.200 427.704,272.480 426.438,271.600 425.000 C 270.720 423.562,270.000 422.296,270.000 422.185 C 270.000 422.075,269.574 421.309,269.053 420.485 C 268.533 419.660,267.570 417.999,266.913 416.793 C 266.256 415.587,263.244 410.280,260.218 405.000 C 257.193 399.720,254.312 394.680,253.816 393.800 C 251.183 389.132,236.529 363.484,235.418 361.600 C 234.704 360.390,233.512 358.275,232.768 356.900 C 231.347 354.274,231.140 354.090,230.507 354.900 M35.216 608.475 C 34.767 608.957,34.400 609.471,34.400 609.617 C 34.400 609.763,33.995 610.336,33.500 610.890 C 32.254 612.283,31.511 613.231,30.746 614.400 C 30.386 614.950,29.711 615.833,29.246 616.361 C 28.781 616.890,28.400 617.494,28.400 617.704 C 28.400 617.913,27.950 618.439,27.400 618.871 C 26.850 619.304,26.400 619.915,26.400 620.229 C 26.400 620.543,26.265 620.804,26.100 620.809 C 25.935 620.814,25.170 621.710,24.400 622.800 C 23.630 623.890,22.865 624.786,22.700 624.791 C 22.535 624.796,22.400 625.030,22.400 625.311 C 22.400 625.592,22.040 626.130,21.600 626.507 C 21.160 626.884,20.800 627.421,20.800 627.701 C 20.800 627.981,20.350 628.548,19.800 628.961 C 19.250 629.374,18.800 629.874,18.800 630.073 C 18.800 630.414,18.462 630.889,17.300 632.185 C 17.025 632.492,16.800 632.854,16.800 632.991 C 16.800 633.127,16.350 633.655,15.800 634.165 C 15.250 634.675,14.800 635.270,14.800 635.487 C 14.800 635.705,14.395 636.336,13.900 636.890 C 12.622 638.319,11.942 639.200,10.800 640.903 C 10.250 641.723,9.665 642.396,9.500 642.397 C 9.335 642.399,9.200 642.593,9.200 642.829 C 9.200 643.064,8.930 643.527,8.600 643.857 C 6.689 645.768,7.460 646.000,15.738 646.000 C 23.631 646.000,25.600 645.575,25.600 643.870 C 25.600 643.560,25.741 643.370,27.306 641.575 C 27.798 641.011,28.558 640.066,28.995 639.475 L 29.790 638.400 42.068 638.400 C 53.995 638.400,54.353 638.423,54.600 639.200 C 54.740 639.640,55.022 640.000,55.227 640.000 C 55.432 640.000,55.600 640.276,55.600 640.613 C 55.600 640.949,55.870 641.329,56.200 641.455 C 56.530 641.582,56.800 641.928,56.800 642.225 C 56.800 642.521,57.214 643.177,57.719 643.683 C 58.225 644.188,58.759 644.917,58.907 645.301 C 59.343 646.437,75.600 646.366,75.600 645.229 C 75.600 644.804,75.330 644.187,75.000 643.857 C 74.670 643.527,74.400 643.077,74.400 642.858 C 74.400 642.638,73.950 642.104,73.400 641.671 C 72.850 641.239,72.400 640.699,72.400 640.471 C 72.400 640.243,72.175 639.819,71.899 639.529 C 71.624 639.238,70.949 638.326,70.399 637.503 C 69.850 636.679,69.265 636.004,69.100 636.003 C 68.935 636.001,68.800 635.730,68.800 635.400 C 68.800 635.070,68.656 634.800,68.480 634.800 C 68.305 634.800,67.720 634.085,67.180 633.211 C 66.641 632.337,66.065 631.617,65.900 631.611 C 65.735 631.605,65.600 631.396,65.600 631.146 C 65.600 630.896,65.150 630.275,64.600 629.765 C 64.050 629.255,63.600 628.689,63.600 628.506 C 63.600 628.151,62.254 626.334,61.100 625.130 C 60.715 624.729,60.400 624.259,60.400 624.087 C 60.400 623.752,59.167 622.105,57.700 620.480 C 57.205 619.932,56.800 619.305,56.800 619.087 C 56.800 618.870,56.350 618.275,55.800 617.765 C 55.250 617.255,54.800 616.693,54.800 616.515 C 54.800 616.337,54.350 615.707,53.800 615.113 C 53.250 614.520,52.800 613.930,52.800 613.801 C 52.800 613.444,51.088 611.083,50.300 610.354 C 49.915 609.998,49.600 609.515,49.600 609.282 C 49.600 607.321,36.951 606.612,35.216 608.475 M327.600 626.800 L 327.600 646.000 335.400 646.000 L 343.200 646.000 343.200 634.000 C 343.200 623.168,343.407 620.676,344.145 622.600 C 344.271 622.930,344.642 623.200,344.969 623.200 C 345.296 623.200,346.005 623.605,346.544 624.100 C 348.112 625.541,348.608 625.885,349.531 626.178 C 350.009 626.330,350.400 626.622,350.400 626.827 C 350.400 627.032,350.651 627.200,350.957 627.200 C 351.264 627.200,351.618 627.470,351.745 627.800 C 351.871 628.130,352.321 628.400,352.745 628.400 C 353.168 628.400,353.618 628.670,353.745 629.000 C 353.871 629.330,354.251 629.600,354.587 629.600 C 354.924 629.600,355.200 629.768,355.200 629.973 C 355.200 630.178,355.605 630.474,356.100 630.630 C 356.595 630.787,357.273 631.204,357.606 631.557 C 358.312 632.307,359.431 633.042,360.700 633.591 C 361.195 633.805,361.600 634.144,361.600 634.343 C 361.600 634.543,361.915 634.812,362.300 634.942 C 363.101 635.211,364.315 635.970,365.112 636.700 C 365.412 636.975,365.895 637.200,366.186 637.200 C 366.477 637.200,366.818 637.470,366.945 637.800 C 367.071 638.130,367.442 638.400,367.769 638.400 C 368.096 638.400,368.805 638.805,369.344 639.300 C 370.912 640.741,371.408 641.085,372.331 641.378 C 372.809 641.530,373.200 641.822,373.200 642.027 C 373.200 642.232,373.451 642.400,373.757 642.400 C 374.064 642.400,374.418 642.670,374.545 643.000 C 374.671 643.330,375.121 643.600,375.545 643.600 C 375.968 643.600,376.418 643.870,376.545 644.200 C 376.671 644.530,377.051 644.800,377.387 644.800 C 377.724 644.800,378.000 644.977,378.000 645.192 C 378.000 645.408,378.450 645.698,379.000 645.836 C 379.550 645.974,380.000 646.247,380.000 646.443 C 380.000 646.640,382.612 646.800,385.804 646.800 L 391.608 646.800 391.504 627.500 L 391.400 608.200 383.900 608.091 L 376.400 607.982 376.400 620.191 C 376.400 626.906,376.286 632.400,376.147 632.400 C 376.008 632.400,375.600 632.085,375.241 631.700 C 374.495 630.900,373.402 630.172,372.100 629.609 C 371.605 629.395,371.200 629.055,371.200 628.853 C 371.200 628.652,370.750 628.374,370.200 628.236 C 369.650 628.098,369.200 627.808,369.200 627.592 C 369.200 627.377,368.930 627.200,368.600 627.200 C 368.270 627.200,368.000 627.023,368.000 626.808 C 368.000 626.592,367.563 626.306,367.029 626.172 C 366.495 626.037,365.961 625.674,365.841 625.364 C 365.722 625.054,365.358 624.800,365.031 624.800 C 364.704 624.800,363.995 624.395,363.456 623.900 C 361.888 622.459,361.392 622.115,360.469 621.822 C 359.991 621.670,359.600 621.378,359.600 621.173 C 359.600 620.968,359.339 620.800,359.020 620.800 C 358.701 620.800,358.296 620.575,358.120 620.300 C 357.745 619.715,356.496 618.876,355.500 618.542 C 355.115 618.412,354.800 618.189,354.800 618.044 C 354.800 617.900,354.170 617.443,353.400 617.028 C 352.630 616.613,352.000 616.122,352.000 615.937 C 352.000 615.752,351.813 615.600,351.584 615.600 C 351.227 615.600,349.003 614.203,348.400 613.600 C 348.103 613.303,346.687 612.434,346.000 612.127 C 345.670 611.979,345.310 611.751,345.200 611.619 C 345.090 611.487,343.740 610.529,342.200 609.489 L 339.400 607.598 333.500 607.599 L 327.600 607.600 327.600 626.800 M108.800 627.000 L 108.800 646.000 126.615 646.000 L 144.430 646.000 144.315 642.300 L 144.200 638.600 134.100 638.493 L 124.000 638.386 124.000 623.193 L 124.000 608.000 116.400 608.000 L 108.800 608.000 108.800 627.000 M172.270 608.263 C 172.121 608.412,172.000 610.123,172.000 612.067 L 172.000 615.600 179.400 615.600 L 186.800 615.600 186.800 630.800 L 186.800 646.000 194.600 646.000 L 202.400 646.000 202.400 630.800 L 202.400 615.600 209.815 615.600 L 217.230 615.600 217.115 611.900 L 217.000 608.200 194.770 608.097 C 182.543 608.040,172.418 608.115,172.270 608.263 M250.800 627.000 L 250.800 646.000 270.000 646.000 L 289.200 646.000 289.200 642.200 L 289.200 638.400 277.600 638.400 L 266.000 638.400 266.000 634.000 L 266.000 629.600 277.400 629.600 L 288.800 629.600 288.800 626.200 L 288.800 622.800 277.400 622.800 L 266.000 622.800 266.000 619.200 L 266.000 615.600 277.600 615.600 L 289.200 615.600 289.200 611.800 L 289.200 608.000 270.000 608.000 L 250.800 608.000 250.800 627.000 M42.023 620.900 C 42.436 621.395,42.779 622.006,42.787 622.257 C 42.794 622.509,43.070 622.818,43.400 622.945 C 43.730 623.071,44.000 623.436,44.000 623.754 C 44.000 624.073,44.135 624.393,44.300 624.467 C 44.712 624.650,47.200 628.341,47.200 628.769 C 47.200 628.959,47.470 629.218,47.800 629.345 C 48.130 629.471,48.400 629.851,48.400 630.187 C 48.400 630.524,48.580 630.800,48.800 630.800 C 49.020 630.800,49.200 630.980,49.200 631.200 C 49.200 631.452,46.467 631.600,41.800 631.600 C 37.133 631.600,34.400 631.452,34.400 631.200 C 34.400 630.980,34.580 630.800,34.800 630.800 C 35.020 630.800,35.200 630.530,35.200 630.200 C 35.200 629.870,35.339 629.600,35.509 629.600 C 35.679 629.600,36.168 628.925,36.596 628.100 C 37.024 627.275,37.695 626.171,38.087 625.646 C 38.479 625.121,38.800 624.456,38.800 624.167 C 38.800 623.878,39.250 623.156,39.800 622.562 C 40.350 621.969,40.800 621.149,40.800 620.742 C 40.800 619.766,41.110 619.806,42.023 620.900 " stroke="none" fill="#040404" fill-rule="evenodd"></path><path id="path2" d="M11.385 11.700 C 11.281 11.975,11.242 139.550,11.298 295.200 L 11.401 578.200 11.500 294.900 L 11.600 11.601 200.500 11.500 L 389.400 11.399 200.487 11.300 C 49.652 11.220,11.537 11.301,11.385 11.700 M330.595 31.700 C 328.638 34.395,326.931 36.690,326.800 36.800 C 326.669 36.910,326.131 37.630,325.605 38.400 C 325.079 39.170,322.900 42.157,320.764 45.037 C 317.407 49.563,300.516 72.617,282.986 96.600 C 280.091 100.560,272.927 110.357,267.065 118.370 C 261.203 126.384,256.485 133.018,256.580 133.114 C 256.675 133.209,267.768 127.765,281.231 121.017 C 295.829 113.700,305.854 108.894,306.070 109.110 C 306.285 109.325,306.247 111.687,305.974 114.961 C 305.723 117.980,305.602 120.536,305.706 120.640 C 305.810 120.743,307.578 118.527,309.635 115.714 C 311.692 112.901,316.450 106.460,320.207 101.400 C 323.965 96.340,328.102 90.760,329.401 89.000 L 331.763 85.800 332.256 76.000 C 333.100 59.221,333.602 48.558,334.017 38.600 C 334.237 33.320,334.517 28.505,334.640 27.900 C 335.038 25.939,334.216 26.712,330.595 31.700 M186.966 227.700 C 170.942 249.589,167.591 254.169,160.404 264.000 C 156.142 269.830,150.740 277.210,148.400 280.400 C 146.059 283.590,138.686 293.670,132.016 302.800 C 117.576 322.563,113.485 328.132,113.207 328.400 C 113.093 328.510,112.375 329.500,111.612 330.600 C 110.848 331.700,110.079 332.780,109.903 333.000 C 109.727 333.220,108.191 335.296,106.491 337.614 C 104.791 339.932,101.948 343.802,100.174 346.214 C 98.400 348.626,96.519 351.230,95.994 352.000 C 95.468 352.770,94.937 353.490,94.813 353.600 C 94.579 353.808,94.069 354.502,78.199 376.200 C 72.889 383.460,63.144 396.780,56.544 405.800 C 45.670 420.661,28.834 443.697,22.486 452.400 C 21.122 454.270,18.295 458.138,16.203 460.995 C 11.597 467.287,11.567 466.674,16.500 466.963 C 21.090 467.231,47.354 468.408,48.600 468.401 C 49.565 468.396,49.433 468.565,64.392 448.200 C 70.856 439.400,78.687 428.780,81.794 424.600 C 84.901 420.420,88.635 415.380,90.090 413.400 C 93.800 408.355,98.446 402.032,103.702 394.876 C 106.176 391.507,109.910 386.463,112.000 383.666 C 116.329 377.872,118.203 375.329,128.412 361.400 C 132.442 355.900,138.288 347.980,141.402 343.800 C 144.515 339.620,150.367 331.700,154.405 326.200 C 163.823 313.372,167.622 308.225,172.414 301.800 C 176.064 296.907,185.808 283.677,192.007 275.200 C 193.535 273.110,196.274 269.393,198.093 266.939 C 201.613 262.191,214.353 244.929,217.887 240.118 L 220.004 237.237 217.902 235.775 C 213.661 232.826,193.440 219.600,193.172 219.600 C 193.020 219.600,190.227 223.245,186.966 227.700 " stroke="none" fill="#0494db" fill-rule="evenodd"></path><path id="path3" d="M2.400 294.800 L 2.400 587.200 200.400 587.200 L 398.400 587.200 398.400 294.800 L 398.400 2.400 200.400 2.400 L 2.400 2.400 2.400 294.800 M389.200 294.600 L 389.200 578.000 200.200 578.000 L 11.200 578.000 11.200 294.867 C 11.200 139.143,11.320 11.613,11.467 11.467 C 11.613 11.320,96.663 11.200,200.467 11.200 L 389.200 11.200 389.200 294.600 " stroke="none" fill="#f8f8f8" fill-rule="evenodd"></path><path id="path4" d="M334.777 26.100 C 334.608 26.832,334.374 30.787,334.032 38.655 C 333.583 48.987,333.031 60.585,332.256 76.000 L 331.763 85.800 328.810 89.800 C 327.185 92.000,323.580 96.860,320.797 100.600 C 318.015 104.340,313.486 110.467,310.732 114.216 L 305.726 121.032 305.250 127.216 C 304.988 130.617,304.596 136.280,304.378 139.800 C 304.160 143.320,303.716 150.250,303.392 155.200 C 303.067 160.150,302.624 167.170,302.407 170.800 C 302.189 174.430,301.914 178.390,301.794 179.600 C 301.675 180.810,301.400 184.680,301.184 188.200 C 300.968 191.720,300.527 198.740,300.204 203.800 C 299.676 212.062,299.283 218.040,298.006 237.200 C 296.675 257.178,296.335 262.404,295.789 271.200 C 295.455 276.590,295.051 282.221,294.891 283.714 L 294.600 286.428 291.400 284.333 C 289.640 283.180,280.820 277.362,271.800 271.402 C 262.780 265.443,251.725 258.144,247.233 255.183 C 242.742 252.223,234.822 246.978,229.633 243.529 L 220.200 237.258 219.400 238.169 C 218.960 238.669,214.730 244.346,210.000 250.783 C 205.270 257.219,199.912 264.491,198.093 266.943 C 196.274 269.394,193.535 273.110,192.007 275.200 C 185.808 283.677,176.064 296.907,172.414 301.800 C 167.622 308.225,163.823 313.372,154.405 326.200 C 150.367 331.700,144.515 339.620,141.402 343.800 C 138.288 347.980,132.442 355.900,128.412 361.400 C 118.203 375.329,116.329 377.872,112.000 383.666 C 109.910 386.463,106.176 391.507,103.702 394.876 C 98.446 402.032,93.800 408.355,90.090 413.400 C 88.635 415.380,84.901 420.420,81.794 424.600 C 78.687 428.780,70.856 439.400,64.392 448.200 C 57.928 457.000,51.911 465.162,51.020 466.339 L 49.400 468.477 45.000 468.246 C 42.580 468.119,37.314 467.894,33.298 467.745 L 25.997 467.475 26.098 515.237 L 26.200 563.000 200.100 563.100 L 374.000 563.201 374.000 294.600 L 374.000 26.000 354.400 26.000 C 343.620 26.000,334.790 26.045,334.777 26.100 M232.000 355.202 C 232.000 355.369,233.440 357.978,235.200 361.000 C 236.960 364.022,238.400 366.560,238.400 366.640 C 238.400 366.720,239.120 367.962,240.000 369.400 C 240.880 370.838,241.600 372.098,241.600 372.200 C 241.600 372.302,242.320 373.562,243.200 375.000 C 244.080 376.438,244.800 377.698,244.800 377.800 C 244.800 377.902,245.520 379.162,246.400 380.600 C 247.280 382.038,248.000 383.279,248.000 383.359 C 248.000 383.438,249.233 385.640,250.739 388.252 C 252.245 390.863,253.930 393.810,254.482 394.800 C 255.035 395.790,257.917 400.840,260.887 406.023 C 263.858 411.205,266.739 416.245,267.291 417.223 C 267.843 418.200,272.098 425.660,276.747 433.800 C 281.395 441.940,285.199 448.825,285.199 449.100 C 285.200 449.682,176.604 449.854,176.244 449.272 C 176.133 449.091,176.393 448.366,176.822 447.660 C 177.660 446.282,183.238 436.668,184.400 434.600 C 184.786 433.912,186.496 430.942,188.200 428.000 C 189.904 425.058,191.614 422.088,192.000 421.400 C 192.386 420.712,194.104 417.730,195.817 414.774 C 197.530 411.818,200.613 406.476,202.668 402.901 C 204.723 399.327,208.142 393.387,210.266 389.701 C 212.390 386.016,215.422 380.750,217.006 378.000 C 218.589 375.250,222.011 369.310,224.611 364.800 C 227.210 360.290,229.532 356.240,229.770 355.800 C 230.732 354.026,230.841 353.936,231.436 354.430 C 231.746 354.687,232.000 355.035,232.000 355.202 M238.391 487.428 C 243.058 487.971,246.323 488.612,251.400 489.983 C 254.899 490.928,260.701 493.389,265.400 495.921 C 267.555 497.083,274.118 502.075,274.312 502.700 C 274.435 503.097,267.316 503.200,239.633 503.200 L 204.800 503.200 204.800 501.479 C 204.800 491.655,220.016 485.290,238.391 487.428 " stroke="none" fill="#fbf304" fill-rule="evenodd"></path></g></svg>